<svg width="127" height="127" viewBox="0 0 127 127" fill="none" xmlns="http://www.w3.org/2000/svg">
<g id="btc">
<circle id="Ellipse 1" cx="63.5" cy="63.5" r="58.5" fill="url(#paint0_linear_3_9)" stroke="url(#paint1_linear_3_9)" stroke-width="10"/>
<path id="b" d="M65.0391 96H48.9111C48.6768 96 48.5596 95.8535 48.5596 95.5605L48.7354 33.7295C48.7354 33.4951 48.8525 33.3779 49.0869 33.3779H66.4014C69.7705 33.3779 72.832 34.1982 75.5859 35.8389C78.2812 37.4795 80.4053 39.6621 81.958 42.3867C83.5107 45.082 84.2871 48.0117 84.2871 51.1758C84.2871 53.7539 83.7012 56.1562 82.5293 58.3828C81.3574 60.6094 79.9658 62.4111 78.3545 63.7881C80.083 65.5166 81.4307 67.5234 82.3975 69.8086C83.3643 72.0938 83.8477 74.4961 83.8477 77.0156C83.8477 80.502 83.0127 83.6807 81.3428 86.5518C79.6436 89.4229 77.373 91.7227 74.5312 93.4512C71.6895 95.1504 68.5254 96 65.0391 96ZM66.4014 44.0566H59.5459V58.207H66.4014C68.4814 58.207 70.166 57.4746 71.4551 56.0098C72.7441 54.5156 73.3887 52.9043 73.3887 51.1758C73.3887 49.2715 72.7002 47.6162 71.3232 46.21C69.9463 44.7744 68.3057 44.0566 66.4014 44.0566ZM65.0391 69.1055H59.5459L59.458 85.0137H65.0391C67.207 85.0137 69.0674 84.2227 70.6201 82.6406C72.1729 81.0586 72.9492 79.1836 72.9492 77.0156C72.9492 74.8477 72.1729 72.9873 70.6201 71.4346C69.0674 69.8818 67.207 69.1055 65.0391 69.1055Z" fill="url(#paint2_linear_3_9)"/>
</g>
<defs>
<linearGradient id="paint0_linear_3_9" x1="-33.9397" y1="5.47077" x2="184.485" y2="52.7479" gradientUnits="userSpaceOnUse">
<stop stop-color="#FFE664"/>
<stop offset="1" stop-color="#FA8341"/>
</linearGradient>
<linearGradient id="paint1_linear_3_9" x1="-7" y1="4.5" x2="133.5" y2="127" gradientUnits="userSpaceOnUse">
<stop stop-color="#FFC164"/>
<stop offset="1" stop-color="#EE7532"/>
</linearGradient>
<linearGradient id="paint2_linear_3_9" x1="38.5" y1="26.52" x2="78.0856" y2="109.531" gradientUnits="userSpaceOnUse">
<stop stop-color="#E87A3D"/>
<stop offset="0.515625" stop-color="#C25B21"/>
<stop offset="1" stop-color="#943500"/>
</linearGradient>
</defs>
</svg>
