<svg width="60" height="60" viewBox="0 0 60 60" fill="none" xmlns="http://www.w3.org/2000/svg">
<g clip-path="url(#clip0_5_92)">
<path d="M42.5 17.5C42.5 18.163 42.2366 18.7989 41.7678 19.2678C41.2989 19.7366 40.663 20 40 20H20C19.337 20 18.7011 19.7366 18.2322 19.2678C17.7634 18.7989 17.5 18.163 17.5 17.5C17.5 16.837 17.7634 16.2011 18.2322 15.7322C18.7011 15.2634 19.337 15 20 15H40C40.663 15 41.2989 15.2634 41.7678 15.7322C42.2366 16.2011 42.5 16.837 42.5 17.5ZM57.5 12.5V47.5C57.496 50.814 56.1778 53.9911 53.8345 56.3345C51.4911 58.6778 48.314 59.996 45 60H15C11.686 59.996 8.50889 58.6778 6.16555 56.3345C3.8222 53.9911 2.50397 50.814 2.5 47.5V12.5C2.50397 9.18601 3.8222 6.00889 6.16555 3.66555C8.50889 1.3222 11.686 0.00396964 15 0L45 0C48.314 0.00396964 51.4911 1.3222 53.8345 3.66555C56.1778 6.00889 57.496 9.18601 57.5 12.5V12.5ZM17.5 45C17.5 44.5055 17.3534 44.0222 17.0787 43.6111C16.804 43.2 16.4135 42.8795 15.9567 42.6903C15.4999 42.5011 14.9972 42.4516 14.5123 42.548C14.0273 42.6445 13.5819 42.8826 13.2322 43.2322C12.8826 43.5819 12.6445 44.0273 12.548 44.5123C12.4516 44.9972 12.5011 45.4999 12.6903 45.9567C12.8795 46.4135 13.2 46.804 13.6111 47.0787C14.0222 47.3534 14.5055 47.5 15 47.5C15.663 47.5 16.2989 47.2366 16.7678 46.7678C17.2366 46.2989 17.5 45.663 17.5 45ZM17.5 35C17.5 34.5055 17.3534 34.0222 17.0787 33.6111C16.804 33.2 16.4135 32.8795 15.9567 32.6903C15.4999 32.5011 14.9972 32.4516 14.5123 32.548C14.0273 32.6445 13.5819 32.8826 13.2322 33.2322C12.8826 33.5819 12.6445 34.0273 12.548 34.5123C12.4516 34.9972 12.5011 35.4999 12.6903 35.9567C12.8795 36.4135 13.2 36.804 13.6111 37.0787C14.0222 37.3534 14.5055 37.5 15 37.5C15.663 37.5 16.2989 37.2366 16.7678 36.7678C17.2366 36.2989 17.5 35.663 17.5 35ZM27.5 45C27.5 44.5055 27.3534 44.0222 27.0787 43.6111C26.804 43.2 26.4135 42.8795 25.9567 42.6903C25.4999 42.5011 24.9972 42.4516 24.5123 42.548C24.0273 42.6445 23.5819 42.8826 23.2322 43.2322C22.8826 43.5819 22.6445 44.0273 22.548 44.5123C22.4516 44.9972 22.5011 45.4999 22.6903 45.9567C22.8795 46.4135 23.2 46.804 23.6111 47.0787C24.0222 47.3534 24.5055 47.5 25 47.5C25.663 47.5 26.2989 47.2366 26.7678 46.7678C27.2366 46.2989 27.5 45.663 27.5 45ZM27.5 35C27.5 34.5055 27.3534 34.0222 27.0787 33.6111C26.804 33.2 26.4135 32.8795 25.9567 32.6903C25.4999 32.5011 24.9972 32.4516 24.5123 32.548C24.0273 32.6445 23.5819 32.8826 23.2322 33.2322C22.8826 33.5819 22.6445 34.0273 22.548 34.5123C22.4516 34.9972 22.5011 35.4999 22.6903 35.9567C22.8795 36.4135 23.2 36.804 23.6111 37.0787C24.0222 37.3534 24.5055 37.5 25 37.5C25.663 37.5 26.2989 37.2366 26.7678 36.7678C27.2366 36.2989 27.5 35.663 27.5 35ZM47.5 45C47.5 44.337 47.2366 43.7011 46.7678 43.2322C46.2989 42.7634 45.663 42.5 45 42.5H35C34.337 42.5 33.7011 42.7634 33.2322 43.2322C32.7634 43.7011 32.5 44.337 32.5 45C32.5 45.663 32.7634 46.2989 33.2322 46.7678C33.7011 47.2366 34.337 47.5 35 47.5H45C45.663 47.5 46.2989 47.2366 46.7678 46.7678C47.2366 46.2989 47.5 45.663 47.5 45ZM35 37.5C35.4945 37.5 35.9778 37.3534 36.3889 37.0787C36.8 36.804 37.1205 36.4135 37.3097 35.9567C37.4989 35.4999 37.5484 34.9972 37.452 34.5123C37.3555 34.0273 37.1174 33.5819 36.7678 33.2322C36.4181 32.8826 35.9727 32.6445 35.4877 32.548C35.0028 32.4516 34.5001 32.5011 34.0433 32.6903C33.5865 32.8795 33.196 33.2 32.9213 33.6111C32.6466 34.0222 32.5 34.5055 32.5 35C32.5 35.663 32.7634 36.2989 33.2322 36.7678C33.7011 37.2366 34.337 37.5 35 37.5ZM47.5 35C47.5 34.5055 47.3534 34.0222 47.0787 33.6111C46.804 33.2 46.4135 32.8795 45.9567 32.6903C45.4999 32.5011 44.9972 32.4516 44.5123 32.548C44.0273 32.6445 43.5819 32.8826 43.2322 33.2322C42.8826 33.5819 42.6445 34.0273 42.548 34.5123C42.4516 34.9972 42.5011 35.4999 42.6903 35.9567C42.8795 36.4135 43.2 36.804 43.6111 37.0787C44.0222 37.3534 44.5055 37.5 45 37.5C45.663 37.5 46.2989 37.2366 46.7678 36.7678C47.2366 36.2989 47.5 35.663 47.5 35ZM47.5 17.5C47.5 15.5109 46.7098 13.6032 45.3033 12.1967C43.8968 10.7902 41.9891 10 40 10H20C18.0109 10 16.1032 10.7902 14.6967 12.1967C13.2902 13.6032 12.5 15.5109 12.5 17.5C12.5 19.4891 13.2902 21.3968 14.6967 22.8033C16.1032 24.2098 18.0109 25 20 25H40C41.9891 25 43.8968 24.2098 45.3033 22.8033C46.7098 21.3968 47.5 19.4891 47.5 17.5Z" fill="url(#paint0_linear_5_92)"/>
</g>
<defs>
<linearGradient id="paint0_linear_5_92" x1="-12.1983" y1="2.58462" x2="83.0763" y2="21.4879" gradientUnits="userSpaceOnUse">
<stop stop-color="#FFE664"/>
<stop offset="1" stop-color="#FA8341"/>
</linearGradient>
<clipPath id="clip0_5_92">
<rect width="60" height="60" fill="white"/>
</clipPath>
</defs>
</svg>
