<svg width="40" height="40" viewBox="0 0 40 40" fill="none" xmlns="http://www.w3.org/2000/svg">
<g clip-path="url(#clip0_5_24)">
<path d="M20 24.9876C17.2386 24.9876 15 27.2262 15 29.9876V39.9876H25V29.9876C25 27.2262 22.7614 24.9876 20 24.9876Z" fill="#FA8341"/>
<path d="M28.3334 29.9876V39.9876H35C37.7614 39.9876 40 37.749 40 34.9876V19.7859C40.0004 18.9201 39.6639 18.088 39.0616 17.4659L24.8984 2.15422C22.3993 -0.54969 18.1815 -0.715706 15.4776 1.78336C15.3491 1.90211 15.2254 2.02578 15.1067 2.15422L0.96836 17.4609C0.347891 18.0856 -0.000234257 18.9305 1.18268e-07 19.8109V34.9876C1.18268e-07 37.749 2.23859 39.9876 5 39.9876H11.6666V29.9876C11.6978 25.4429 15.3671 21.7316 19.7973 21.6248C24.3758 21.5143 28.2984 25.2887 28.3334 29.9876Z" fill="#FA8341"/>
<path d="M20 24.9876C17.2386 24.9876 15 27.2262 15 29.9876V39.9876H25V29.9876C25 27.2262 22.7614 24.9876 20 24.9876Z" fill="#FA8341"/>
</g>
<defs>
<clipPath id="clip0_5_24">
<rect width="40" height="40" fill="white"/>
</clipPath>
</defs>
</svg>
