<svg width="50" height="50" viewBox="0 0 50 50" fill="none" xmlns="http://www.w3.org/2000/svg">
<g clip-path="url(#clip0_5_30)">
<path d="M39.5833 8.33334H10.4167C7.65501 8.33665 5.00741 9.43518 3.05462 11.388C1.10184 13.3408 0.00330804 15.9884 0 18.75L0 31.25C0.00330804 34.0117 1.10184 36.6593 3.05462 38.6121C5.00741 40.5648 7.65501 41.6634 10.4167 41.6667H39.5833C42.345 41.6634 44.9926 40.5648 46.9454 38.6121C48.8982 36.6593 49.9967 34.0117 50 31.25V18.75C49.9967 15.9884 48.8982 13.3408 46.9454 11.388C44.9926 9.43518 42.345 8.33665 39.5833 8.33334V8.33334ZM8.33333 35.4167C7.92129 35.4167 7.5185 35.2945 7.1759 35.0656C6.83329 34.8367 6.56627 34.5113 6.40858 34.1306C6.2509 33.7499 6.20964 33.331 6.29003 32.9269C6.37042 32.5228 6.56883 32.1516 6.86019 31.8602C7.15155 31.5688 7.52277 31.3704 7.92689 31.29C8.33102 31.2097 8.74991 31.2509 9.13059 31.4086C9.51127 31.5663 9.83664 31.8333 10.0656 32.1759C10.2945 32.5185 10.4167 32.9213 10.4167 33.3333C10.4167 33.8859 10.1972 34.4158 9.80647 34.8065C9.41577 35.1972 8.88587 35.4167 8.33333 35.4167ZM8.33333 18.75C7.92129 18.75 7.5185 18.6278 7.1759 18.3989C6.83329 18.17 6.56627 17.8446 6.40858 17.4639C6.2509 17.0833 6.20964 16.6644 6.29003 16.2602C6.37042 15.8561 6.56883 15.4849 6.86019 15.1935C7.15155 14.9022 7.52277 14.7038 7.92689 14.6234C8.33102 14.543 8.74991 14.5842 9.13059 14.7419C9.51127 14.8996 9.83664 15.1666 10.0656 15.5092C10.2945 15.8518 10.4167 16.2546 10.4167 16.6667C10.4167 17.2192 10.1972 17.7491 9.80647 18.1398C9.41577 18.5305 8.88587 18.75 8.33333 18.75ZM25 33.3333C23.3518 33.3333 21.7407 32.8446 20.3702 31.9289C18.9998 31.0132 17.9317 29.7118 17.301 28.189C16.6703 26.6663 16.5052 24.9908 16.8268 23.3743C17.1483 21.7577 17.942 20.2729 19.1074 19.1075C20.2729 17.942 21.7577 17.1483 23.3742 16.8268C24.9908 16.5053 26.6663 16.6703 28.189 17.301C29.7117 17.9317 31.0132 18.9998 31.9289 20.3703C32.8446 21.7407 33.3333 23.3518 33.3333 25C33.3333 27.2101 32.4554 29.3298 30.8926 30.8926C29.3298 32.4554 27.2101 33.3333 25 33.3333ZM41.6667 35.4167C41.2546 35.4167 40.8518 35.2945 40.5092 35.0656C40.1666 34.8367 39.8996 34.5113 39.7419 34.1306C39.5842 33.7499 39.543 33.331 39.6234 32.9269C39.7037 32.5228 39.9022 32.1516 40.1935 31.8602C40.4849 31.5688 40.8561 31.3704 41.2602 31.29C41.6644 31.2097 42.0832 31.2509 42.4639 31.4086C42.8446 31.5663 43.17 31.8333 43.3989 32.1759C43.6278 32.5185 43.75 32.9213 43.75 33.3333C43.75 33.8859 43.5305 34.4158 43.1398 34.8065C42.7491 35.1972 42.2192 35.4167 41.6667 35.4167ZM41.6667 18.75C41.2546 18.75 40.8518 18.6278 40.5092 18.3989C40.1666 18.17 39.8996 17.8446 39.7419 17.4639C39.5842 17.0833 39.543 16.6644 39.6234 16.2602C39.7037 15.8561 39.9022 15.4849 40.1935 15.1935C40.4849 14.9022 40.8561 14.7038 41.2602 14.6234C41.6644 14.543 42.0832 14.5842 42.4639 14.7419C42.8446 14.8996 43.17 15.1666 43.3989 15.5092C43.6278 15.8518 43.75 16.2546 43.75 16.6667C43.75 17.2192 43.5305 17.7491 43.1398 18.1398C42.7491 18.5305 42.2192 18.75 41.6667 18.75ZM29.1667 25C29.1667 25.8241 28.9223 26.6297 28.4645 27.3149C28.0066 28.0001 27.3559 28.5341 26.5945 28.8495C25.8332 29.1649 24.9954 29.2474 24.1871 29.0866C23.3789 28.9258 22.6364 28.529 22.0537 27.9463C21.471 27.3636 21.0742 26.6211 20.9134 25.8129C20.7526 25.0046 20.8351 24.1669 21.1505 23.4055C21.4659 22.6441 21.9999 21.9934 22.6851 21.5356C23.3703 21.0777 24.1759 20.8333 25 20.8333C26.1051 20.8333 27.1649 21.2723 27.9463 22.0537C28.7277 22.8351 29.1667 23.8949 29.1667 25Z" fill="#FA8341"/>
</g>
<defs>
<clipPath id="clip0_5_30">
<rect width="50" height="50" fill="white"/>
</clipPath>
</defs>
</svg>
